<svg width="156" height="156" viewBox="0 0 156 156" fill="none" xmlns="http://www.w3.org/2000/svg">
<g filter="url(#filter0_d_2_246)">
<circle cx="78" cy="74" r="60" fill="#F5EFEF"/>
</g>
<rect x="77.1382" y="73.7394" width="32.5613" height="1.44717" rx="0.723584" transform="rotate(-30 77.1382 73.7394)" fill="#D8605B"/>
<rect x="58.2312" y="106.597" width="38.7306" height="1.37709" rx="0.688545" transform="rotate(-60 58.2312 106.597)" fill="#F4C27F"/>
<rect x="77.5" y="75.6711" width="45" height="1.4" rx="0.7" transform="rotate(-120 77.5 75.6711)" fill="#C1C0C0"/>
<g filter="url(#filter1_d_2_246)">
<circle cx="78" cy="74" r="5" fill="#EEEEEE"/>
</g>
<path d="M73.27 26.29V24.7H76.04V32H74.26V26.29H73.27ZM77.7498 30.63C77.9764 30.45 78.0798 30.3667 78.0598 30.38C78.7131 29.84 79.2264 29.3967 79.5998 29.05C79.9798 28.7033 80.2998 28.34 80.5598 27.96C80.8198 27.58 80.9498 27.21 80.9498 26.85C80.9498 26.5767 80.8864 26.3633 80.7598 26.21C80.6331 26.0567 80.4431 25.98 80.1898 25.98C79.9364 25.98 79.7364 26.0767 79.5898 26.27C79.4498 26.4567 79.3798 26.7233 79.3798 27.07H77.7298C77.7431 26.5033 77.8631 26.03 78.0898 25.65C78.3231 25.27 78.6264 24.99 78.9998 24.81C79.3798 24.63 79.7998 24.54 80.2598 24.54C81.0531 24.54 81.6498 24.7433 82.0498 25.15C82.4564 25.5567 82.6598 26.0867 82.6598 26.74C82.6598 27.4533 82.4164 28.1167 81.9298 28.73C81.4431 29.3367 80.8231 29.93 80.0698 30.51H82.7698V31.9H77.7498V30.63Z" fill="#F4C27F"/>
<path d="M80.06 118.67C80.0067 118.423 79.9133 118.24 79.78 118.12C79.6467 117.993 79.4567 117.93 79.21 117.93C78.83 117.93 78.5567 118.097 78.39 118.43C78.2233 118.757 78.1367 119.277 78.13 119.99C78.2767 119.757 78.4867 119.573 78.76 119.44C79.04 119.307 79.3467 119.24 79.68 119.24C80.3333 119.24 80.8567 119.447 81.25 119.86C81.65 120.273 81.85 120.85 81.85 121.59C81.85 122.077 81.75 122.503 81.55 122.87C81.3567 123.237 81.07 123.523 80.69 123.73C80.3167 123.937 79.8733 124.04 79.36 124.04C78.3333 124.04 77.62 123.72 77.22 123.08C76.82 122.433 76.62 121.507 76.62 120.3C76.62 119.033 76.83 118.093 77.25 117.48C77.6767 116.86 78.3567 116.55 79.29 116.55C79.79 116.55 80.21 116.65 80.55 116.85C80.8967 117.043 81.1567 117.3 81.33 117.62C81.51 117.94 81.6167 118.29 81.65 118.67H80.06ZM79.27 120.59C78.9833 120.59 78.7433 120.677 78.55 120.85C78.3633 121.017 78.27 121.257 78.27 121.57C78.27 121.89 78.3567 122.14 78.53 122.32C78.71 122.5 78.9633 122.59 79.29 122.59C79.5833 122.59 79.8133 122.503 79.98 122.33C80.1533 122.15 80.24 121.907 80.24 121.6C80.24 121.287 80.1567 121.04 79.99 120.86C79.8233 120.68 79.5833 120.59 79.27 120.59Z" fill="#F4C27F"/>
<path d="M128.51 72.76C128.537 72.0467 128.77 71.4967 129.21 71.11C129.65 70.7233 130.247 70.53 131 70.53C131.5 70.53 131.927 70.6167 132.28 70.79C132.64 70.9633 132.91 71.2 133.09 71.5C133.277 71.8 133.37 72.1367 133.37 72.51C133.37 72.95 133.26 73.31 133.04 73.59C132.82 73.8633 132.563 74.05 132.27 74.15V74.19C132.65 74.3167 132.95 74.5267 133.17 74.82C133.39 75.1133 133.5 75.49 133.5 75.95C133.5 76.3633 133.403 76.73 133.21 77.05C133.023 77.3633 132.747 77.61 132.38 77.79C132.02 77.97 131.59 78.06 131.09 78.06C130.29 78.06 129.65 77.8633 129.17 77.47C128.697 77.0767 128.447 76.4833 128.42 75.69H130.08C130.087 75.9833 130.17 76.2167 130.33 76.39C130.49 76.5567 130.723 76.64 131.03 76.64C131.29 76.64 131.49 76.5667 131.63 76.42C131.777 76.2667 131.85 76.0667 131.85 75.82C131.85 75.5 131.747 75.27 131.54 75.13C131.34 74.9833 131.017 74.91 130.57 74.91H130.25V73.52H130.57C130.91 73.52 131.183 73.4633 131.39 73.35C131.603 73.23 131.71 73.02 131.71 72.72C131.71 72.48 131.643 72.2933 131.51 72.16C131.377 72.0267 131.193 71.96 130.96 71.96C130.707 71.96 130.517 72.0367 130.39 72.19C130.27 72.3433 130.2 72.5333 130.18 72.76H128.51Z" fill="#F4C27F"/>
<path d="M28.29 75.86C28.39 76.3867 28.6967 76.65 29.21 76.65C29.5633 76.65 29.8133 76.4933 29.96 76.18C30.1067 75.8667 30.18 75.3567 30.18 74.65C30.0333 74.8567 29.8333 75.0167 29.58 75.13C29.3267 75.2433 29.0433 75.3 28.73 75.3C28.3033 75.3 27.9233 75.2133 27.59 75.04C27.2567 74.86 26.9933 74.5967 26.8 74.25C26.6133 73.8967 26.52 73.47 26.52 72.97C26.52 72.4767 26.62 72.0467 26.82 71.68C27.0267 71.3133 27.3167 71.03 27.69 70.83C28.07 70.63 28.5167 70.53 29.03 70.53C30.0167 70.53 30.7067 70.8367 31.1 71.45C31.4933 72.0633 31.69 72.9667 31.69 74.16C31.69 75.0267 31.61 75.7433 31.45 76.31C31.2967 76.87 31.0333 77.2967 30.66 77.59C30.2933 77.8833 29.79 78.03 29.15 78.03C28.6433 78.03 28.21 77.93 27.85 77.73C27.4967 77.53 27.2233 77.2667 27.03 76.94C26.8433 76.6133 26.7367 76.2533 26.71 75.86H28.29ZM29.12 73.95C29.4 73.95 29.6233 73.8667 29.79 73.7C29.9567 73.5267 30.04 73.2933 30.04 73C30.04 72.68 29.9533 72.4333 29.78 72.26C29.6067 72.0867 29.3733 72 29.08 72C28.7867 72 28.5533 72.09 28.38 72.27C28.2133 72.4433 28.13 72.6833 28.13 72.99C28.13 73.2767 28.2133 73.51 28.38 73.69C28.5533 73.8633 28.8 73.95 29.12 73.95Z" fill="#F4C27F"/>
<defs>
<filter id="filter0_d_2_246" x="0" y="0" width="156" height="156" filterUnits="userSpaceOnUse" color-interpolation-filters="sRGB">
<feFlood flood-opacity="0" result="BackgroundImageFix"/>
<feColorMatrix in="SourceAlpha" type="matrix" values="0 0 0 0 0 0 0 0 0 0 0 0 0 0 0 0 0 0 127 0" result="hardAlpha"/>
<feMorphology radius="6" operator="dilate" in="SourceAlpha" result="effect1_dropShadow_2_246"/>
<feOffset dy="4"/>
<feGaussianBlur stdDeviation="6"/>
<feColorMatrix type="matrix" values="0 0 0 0 0.956863 0 0 0 0 0.760784 0 0 0 0 0.498039 0 0 0 0.67 0"/>
<feBlend mode="normal" in2="BackgroundImageFix" result="effect1_dropShadow_2_246"/>
<feBlend mode="normal" in="SourceGraphic" in2="effect1_dropShadow_2_246" result="shape"/>
</filter>
<filter id="filter1_d_2_246" x="69" y="69" width="18" height="18" filterUnits="userSpaceOnUse" color-interpolation-filters="sRGB">
<feFlood flood-opacity="0" result="BackgroundImageFix"/>
<feColorMatrix in="SourceAlpha" type="matrix" values="0 0 0 0 0 0 0 0 0 0 0 0 0 0 0 0 0 0 127 0" result="hardAlpha"/>
<feOffset dy="4"/>
<feGaussianBlur stdDeviation="2"/>
<feColorMatrix type="matrix" values="0 0 0 0 0 0 0 0 0 0 0 0 0 0 0 0 0 0 0.25 0"/>
<feBlend mode="normal" in2="BackgroundImageFix" result="effect1_dropShadow_2_246"/>
<feBlend mode="normal" in="SourceGraphic" in2="effect1_dropShadow_2_246" result="shape"/>
</filter>
</defs>
</svg>
